<svg width="72" height="72" viewBox="0 0 72 72" fill="none" xmlns="http://www.w3.org/2000/svg">
<g clip-path="url(#clip0_434_27009)">
<path d="M22.7996 28.8C23.4716 28.8 23.9996 28.272 23.9996 27.6V24H40.7996V40.8C40.7996 41.472 41.3276 42 41.9996 42C42.6716 42 43.1996 41.472 43.1996 40.8V22.8C43.1996 22.128 42.6716 21.6 41.9996 21.6H40.7996V18C40.7996 17.328 40.2716 16.8 39.5996 16.8H38.3996V13.2C38.3996 12.528 37.8716 12 37.1996 12H27.5996C26.9276 12 26.3996 12.528 26.3996 13.2V16.8H25.1996C24.5276 16.8 23.9996 17.328 23.9996 18V21.6H22.7996C22.1276 21.6 21.5996 22.128 21.5996 22.8V27.6C21.5996 28.272 22.1276 28.8 22.7996 28.8ZM28.7996 14.4H35.9996V16.8H28.7996V14.4ZM26.3996 19.2H38.3996V21.6H26.3996V19.2Z" fill="#D4B183"/>
<path d="M56.3996 38.4H46.7996C46.1276 38.4 45.5996 38.928 45.5996 39.6C45.5996 40.272 46.1276 40.8 46.7996 40.8H56.3996C57.0716 40.8 57.5996 40.272 57.5996 39.6C57.5996 38.928 57.0716 38.4 56.3996 38.4Z" fill="#D4B183"/>
<path d="M56.3996 33.6H46.7996C46.1276 33.6 45.5996 34.128 45.5996 34.8C45.5996 35.472 46.1276 36 46.7996 36H56.3996C57.0716 36 57.5996 35.472 57.5996 34.8C57.5996 34.128 57.0716 33.6 56.3996 33.6Z" fill="#D4B183"/>
<path d="M43.2 9.60001H64.8V14.4H46.8C46.128 14.4 45.6 14.928 45.6 15.6C45.6 16.272 46.128 16.8 46.8 16.8H64.8V19.2H46.8C46.128 19.2 45.6 19.728 45.6 20.4C45.6 21.072 46.128 21.6 46.8 21.6H64.8V24H46.8C46.128 24 45.6 24.528 45.6 25.2C45.6 25.872 46.128 26.4 46.8 26.4H64.8V28.8H46.8C46.128 28.8 45.6 29.328 45.6 30C45.6 30.672 46.128 31.2 46.8 31.2H64.8C64.8 31.872 65.328 32.4 66 32.4C66.672 32.4 67.2 31.872 67.2 31.2V8.40001C67.2 7.72801 66.672 7.20001 66 7.20001H64.8V3.60001C64.8 3.00001 64.368 2.49601 63.768 2.40001L46.968 6.5919e-06C46.632 -0.0479934 46.272 0.0480066 46.008 0.288007C45.744 0.504007 45.6 0.840007 45.6 1.20001V7.20001H43.2C42.528 7.20001 42 7.72801 42 8.40001C42 9.07201 42.528 9.60001 43.2 9.60001ZM48 2.59201L62.4 4.65601V7.22401H48V2.61601V2.59201Z" fill="#D4B183"/>
<path d="M3.60039 58.824C4.27239 58.824 4.80039 58.296 4.80039 57.624V33.6H21.6004V48.024C21.6004 48.696 22.1284 49.224 22.8004 49.224C23.4724 49.224 24.0004 48.696 24.0004 48.024V32.4C24.0004 31.728 23.4724 31.2 22.8004 31.2H16.8004V25.2C16.8004 24.528 16.2724 24 15.6004 24C14.9284 24 14.4004 24.528 14.4004 25.2V31.2H12.0004V27.6C12.0004 26.928 11.4724 26.4 10.8004 26.4C10.1284 26.4 9.60039 26.928 9.60039 27.6V31.2H3.60039C2.92839 31.2 2.40039 31.728 2.40039 32.4V57.624C2.40039 58.296 2.92839 58.824 3.60039 58.824Z" fill="#D4B183"/>
<path d="M1.19961 66C1.43961 66 1.65561 65.928 1.87161 65.808L19.3916 54.12L30.8396 57.552C31.2236 57.672 31.6316 57.576 31.9436 57.336L44.6396 46.968L54.8156 50.352C55.2236 50.496 55.6796 50.4 56.0156 50.088L69.2156 37.92L68.4236 44.256C68.3516 44.904 68.8076 45.504 69.4556 45.6C69.5036 45.6 69.5516 45.6 69.5996 45.6C70.1996 45.6 70.7036 45.168 70.7996 44.544L71.9996 34.944C71.9996 34.944 71.9996 34.92 71.9996 34.896C71.9996 34.752 71.9996 34.608 71.9516 34.488C71.9516 34.464 71.9516 34.416 71.9516 34.392C71.9036 34.248 71.8076 34.104 71.7116 33.984C71.7116 33.984 71.7116 33.984 71.7116 33.96C71.6636 33.912 71.5916 33.888 71.5436 33.864C71.4716 33.816 71.3996 33.744 71.3036 33.72C71.2316 33.696 71.1596 33.672 71.0636 33.672C70.9676 33.672 70.8956 33.648 70.7996 33.648C70.7756 33.648 70.7276 33.648 70.7036 33.648L61.1036 34.848C60.4556 34.92 59.9756 35.52 60.0716 36.192C60.1676 36.864 60.7676 37.32 61.4156 37.224L67.2956 36.48L54.9596 47.856L44.8316 44.472C44.4476 44.352 44.0156 44.424 43.7036 44.688L31.0076 55.08L19.6076 51.672C19.2716 51.576 18.8876 51.624 18.5996 51.816L0.527611 63.792C-0.0243894 64.152 -0.168389 64.896 0.191611 65.448C0.431611 65.784 0.791611 65.976 1.19961 65.976V66Z" fill="#D4B183"/>
<path d="M12 63.6V66C12 66.672 12.528 67.2 13.2 67.2C13.872 67.2 14.4 66.672 14.4 66V63.6C14.4 62.928 13.872 62.4 13.2 62.4C12.528 62.4 12 62.928 12 63.6Z" fill="#D4B183"/>
<path d="M16.8008 60V66C16.8008 66.672 17.3288 67.2 18.0008 67.2C18.6728 67.2 19.2008 66.672 19.2008 66V60C19.2008 59.328 18.6728 58.8 18.0008 58.8C17.3288 58.8 16.8008 59.328 16.8008 60Z" fill="#D4B183"/>
<path d="M21.5996 58.8V66C21.5996 66.672 22.1276 67.2 22.7996 67.2C23.4716 67.2 23.9996 66.672 23.9996 66V58.8C23.9996 58.128 23.4716 57.6 22.7996 57.6C22.1276 57.6 21.5996 58.128 21.5996 58.8Z" fill="#D4B183"/>
<path d="M26.4004 61.2V66C26.4004 66.672 26.9284 67.2 27.6004 67.2C28.2724 67.2 28.8004 66.672 28.8004 66V61.2C28.8004 60.528 28.2724 60 27.6004 60C26.9284 60 26.4004 60.528 26.4004 61.2Z" fill="#D4B183"/>
<path d="M31.1992 61.2V66C31.1992 66.672 31.7272 67.2 32.3992 67.2C33.0712 67.2 33.5992 66.672 33.5992 66V61.2C33.5992 60.528 33.0712 60 32.3992 60C31.7272 60 31.1992 60.528 31.1992 61.2Z" fill="#D4B183"/>
<path d="M36 58.8V66C36 66.672 36.528 67.2 37.2 67.2C37.872 67.2 38.4 66.672 38.4 66V58.8C38.4 58.128 37.872 57.6 37.2 57.6C36.528 57.6 36 58.128 36 58.8Z" fill="#D4B183"/>
<path d="M40.8008 54V66C40.8008 66.672 41.3288 67.2 42.0008 67.2C42.6728 67.2 43.2008 66.672 43.2008 66V54C43.2008 53.328 42.6728 52.8 42.0008 52.8C41.3288 52.8 40.8008 53.328 40.8008 54Z" fill="#D4B183"/>
<path d="M45.5996 52.8V66C45.5996 66.672 46.1276 67.2 46.7996 67.2C47.4716 67.2 47.9996 66.672 47.9996 66V52.8C47.9996 52.128 47.4716 51.6 46.7996 51.6C46.1276 51.6 45.5996 52.128 45.5996 52.8Z" fill="#D4B183"/>
<path d="M50.4004 54V66C50.4004 66.672 50.9284 67.2 51.6004 67.2C52.2724 67.2 52.8004 66.672 52.8004 66V54C52.8004 53.328 52.2724 52.8 51.6004 52.8C50.9284 52.8 50.4004 53.328 50.4004 54Z" fill="#D4B183"/>
<path d="M55.1992 54V66C55.1992 66.672 55.7272 67.2 56.3992 67.2C57.0712 67.2 57.5992 66.672 57.5992 66V54C57.5992 53.328 57.0712 52.8 56.3992 52.8C55.7272 52.8 55.1992 53.328 55.1992 54Z" fill="#D4B183"/>
<path d="M60 51.6V66C60 66.672 60.528 67.2 61.2 67.2C61.872 67.2 62.4 66.672 62.4 66V51.6C62.4 50.928 61.872 50.4 61.2 50.4C60.528 50.4 60 50.928 60 51.6Z" fill="#D4B183"/>
<path d="M64.8008 46.8V66C64.8008 66.672 65.3288 67.2 66.0008 67.2C66.6728 67.2 67.2008 66.672 67.2008 66V46.8C67.2008 46.128 66.6728 45.6 66.0008 45.6C65.3288 45.6 64.8008 46.128 64.8008 46.8Z" fill="#D4B183"/>
<path d="M37.4391 45.6H37.1991C36.5271 45.6 36.1191 46.128 36.1191 46.8C36.1191 47.472 36.7671 48 37.4391 48C38.1111 48 38.6391 47.472 38.6391 46.8C38.6391 46.128 38.1111 45.6 37.4391 45.6Z" fill="#D4B183"/>
<path d="M32.6403 45.6H32.4003C31.7283 45.6 31.3203 46.128 31.3203 46.8C31.3203 47.472 31.9683 48 32.6403 48C33.3123 48 33.8403 47.472 33.8403 46.8C33.8403 46.128 33.3123 45.6 32.6403 45.6Z" fill="#D4B183"/>
<path d="M27.8395 50.4H27.5995C26.9275 50.4 26.5195 50.928 26.5195 51.6C26.5195 52.272 27.1675 52.8 27.8395 52.8C28.5115 52.8 29.0395 52.272 29.0395 51.6C29.0395 50.928 28.5115 50.4 27.8395 50.4Z" fill="#D4B183"/>
<path d="M27.8395 45.6H27.5995C26.9275 45.6 26.5195 46.128 26.5195 46.8C26.5195 47.472 27.1675 48 27.8395 48C28.5115 48 29.0395 47.472 29.0395 46.8C29.0395 46.128 28.5115 45.6 27.8395 45.6Z" fill="#D4B183"/>
<path d="M37.4391 40.8H37.1991C36.5271 40.8 36.1191 41.328 36.1191 42C36.1191 42.672 36.7671 43.2 37.4391 43.2C38.1111 43.2 38.6391 42.672 38.6391 42C38.6391 41.328 38.1111 40.8 37.4391 40.8Z" fill="#D4B183"/>
<path d="M32.6403 40.8H32.4003C31.7283 40.8 31.3203 41.328 31.3203 42C31.3203 42.672 31.9683 43.2 32.6403 43.2C33.3123 43.2 33.8403 42.672 33.8403 42C33.8403 41.328 33.3123 40.8 32.6403 40.8Z" fill="#D4B183"/>
<path d="M27.8395 40.8H27.5995C26.9275 40.8 26.5195 41.328 26.5195 42C26.5195 42.672 27.1675 43.2 27.8395 43.2C28.5115 43.2 29.0395 42.672 29.0395 42C29.0395 41.328 28.5115 40.8 27.8395 40.8Z" fill="#D4B183"/>
<path d="M37.4391 36H37.1991C36.5271 36 36.1191 36.528 36.1191 37.2C36.1191 37.872 36.7671 38.4 37.4391 38.4C38.1111 38.4 38.6391 37.872 38.6391 37.2C38.6391 36.528 38.1111 36 37.4391 36Z" fill="#D4B183"/>
<path d="M32.6403 36H32.4003C31.7283 36 31.3203 36.528 31.3203 37.2C31.3203 37.872 31.9683 38.4 32.6403 38.4C33.3123 38.4 33.8403 37.872 33.8403 37.2C33.8403 36.528 33.3123 36 32.6403 36Z" fill="#D4B183"/>
<path d="M27.8395 36H27.5995C26.9275 36 26.5195 36.528 26.5195 37.2C26.5195 37.872 27.1675 38.4 27.8395 38.4C28.5115 38.4 29.0395 37.872 29.0395 37.2C29.0395 36.528 28.5115 36 27.8395 36Z" fill="#D4B183"/>
<path d="M37.4391 31.2H37.1991C36.5271 31.2 36.1191 31.728 36.1191 32.4C36.1191 33.072 36.7671 33.6 37.4391 33.6C38.1111 33.6 38.6391 33.072 38.6391 32.4C38.6391 31.728 38.1111 31.2 37.4391 31.2Z" fill="#D4B183"/>
<path d="M32.6403 31.2H32.4003C31.7283 31.2 31.3203 31.728 31.3203 32.4C31.3203 33.072 31.9683 33.6 32.6403 33.6C33.3123 33.6 33.8403 33.072 33.8403 32.4C33.8403 31.728 33.3123 31.2 32.6403 31.2Z" fill="#D4B183"/>
<path d="M27.8395 31.2H27.5995C26.9275 31.2 26.5195 31.728 26.5195 32.4C26.5195 33.072 27.1675 33.6 27.8395 33.6C28.5115 33.6 29.0395 33.072 29.0395 32.4C29.0395 31.728 28.5115 31.2 27.8395 31.2Z" fill="#D4B183"/>
<path d="M37.4391 26.4H37.1991C36.5271 26.4 36.1191 26.928 36.1191 27.6C36.1191 28.272 36.7671 28.8 37.4391 28.8C38.1111 28.8 38.6391 28.272 38.6391 27.6C38.6391 26.928 38.1111 26.4 37.4391 26.4Z" fill="#D4B183"/>
<path d="M32.6403 26.4H32.4003C31.7283 26.4 31.3203 26.928 31.3203 27.6C31.3203 28.272 31.9683 28.8 32.6403 28.8C33.3123 28.8 33.8403 28.272 33.8403 27.6C33.8403 26.928 33.3123 26.4 32.6403 26.4Z" fill="#D4B183"/>
<path d="M27.8395 26.4H27.5995C26.9275 26.4 26.5195 26.928 26.5195 27.6C26.5195 28.272 27.1675 28.8 27.8395 28.8C28.5115 28.8 29.0395 28.272 29.0395 27.6C29.0395 26.928 28.5115 26.4 27.8395 26.4Z" fill="#D4B183"/>
<path d="M13.4391 50.4H13.1991C12.5271 50.4 12.1191 50.928 12.1191 51.6C12.1191 52.272 12.7671 52.8 13.4391 52.8C14.1111 52.8 14.6391 52.272 14.6391 51.6C14.6391 50.928 14.1111 50.4 13.4391 50.4Z" fill="#D4B183"/>
<path d="M8.64031 50.4H8.40031C7.72831 50.4 7.32031 50.928 7.32031 51.6C7.32031 52.272 7.96831 52.8 8.64031 52.8C9.31231 52.8 9.84031 52.272 9.84031 51.6C9.84031 50.928 9.31231 50.4 8.64031 50.4Z" fill="#D4B183"/>
<path d="M18.2399 45.6H17.9999C17.3279 45.6 16.9199 46.128 16.9199 46.8C16.9199 47.472 17.5679 48 18.2399 48C18.9119 48 19.4399 47.472 19.4399 46.8C19.4399 46.128 18.9119 45.6 18.2399 45.6Z" fill="#D4B183"/>
<path d="M13.4391 45.6H13.1991C12.5271 45.6 12.1191 46.128 12.1191 46.8C12.1191 47.472 12.7671 48 13.4391 48C14.1111 48 14.6391 47.472 14.6391 46.8C14.6391 46.128 14.1111 45.6 13.4391 45.6Z" fill="#D4B183"/>
<path d="M8.64031 45.6H8.40031C7.72831 45.6 7.32031 46.128 7.32031 46.8C7.32031 47.472 7.96831 48 8.64031 48C9.31231 48 9.84031 47.472 9.84031 46.8C9.84031 46.128 9.31231 45.6 8.64031 45.6Z" fill="#D4B183"/>
<path d="M18.2399 40.8H17.9999C17.3279 40.8 16.9199 41.328 16.9199 42C16.9199 42.672 17.5679 43.2 18.2399 43.2C18.9119 43.2 19.4399 42.672 19.4399 42C19.4399 41.328 18.9119 40.8 18.2399 40.8Z" fill="#D4B183"/>
<path d="M13.4391 40.8H13.1991C12.5271 40.8 12.1191 41.328 12.1191 42C12.1191 42.672 12.7671 43.2 13.4391 43.2C14.1111 43.2 14.6391 42.672 14.6391 42C14.6391 41.328 14.1111 40.8 13.4391 40.8Z" fill="#D4B183"/>
<path d="M8.64031 40.8H8.40031C7.72831 40.8 7.32031 41.328 7.32031 42C7.32031 42.672 7.96831 43.2 8.64031 43.2C9.31231 43.2 9.84031 42.672 9.84031 42C9.84031 41.328 9.31231 40.8 8.64031 40.8Z" fill="#D4B183"/>
<path d="M18.2399 36H17.9999C17.3279 36 16.9199 36.528 16.9199 37.2C16.9199 37.872 17.5679 38.4 18.2399 38.4C18.9119 38.4 19.4399 37.872 19.4399 37.2C19.4399 36.528 18.9119 36 18.2399 36Z" fill="#D4B183"/>
<path d="M13.4391 36H13.1991C12.5271 36 12.1191 36.528 12.1191 37.2C12.1191 37.872 12.7671 38.4 13.4391 38.4C14.1111 38.4 14.6391 37.872 14.6391 37.2C14.6391 36.528 14.1111 36 13.4391 36Z" fill="#D4B183"/>
<path d="M8.64031 36H8.40031C7.72831 36 7.32031 36.528 7.32031 37.2C7.32031 37.872 7.96831 38.4 8.64031 38.4C9.31231 38.4 9.84031 37.872 9.84031 37.2C9.84031 36.528 9.31231 36 8.64031 36Z" fill="#D4B183"/>
<path d="M7.19922 65.76V66C7.19922 66.672 7.72722 67.08 8.39922 67.08C9.07122 67.08 9.59922 66.432 9.59922 65.76C9.59922 65.088 9.07122 64.56 8.39922 64.56C7.72722 64.56 7.19922 65.088 7.19922 65.76Z" fill="#D4B183"/>
<path d="M70.8 69.6H1.2C0.528 69.6 0 70.128 0 70.8C0 71.472 0.528 72 1.2 72H70.8C71.472 72 72 71.472 72 70.8C72 70.128 71.472 69.6 70.8 69.6Z" fill="#D4B183"/>
</g>
<defs>
<clipPath id="clip0_434_27009">
<rect width="72" height="72" fill="white"/>
</clipPath>
</defs>
</svg>
