<svg width="404" height="264" viewBox="0 0 404 264" fill="none" xmlns="http://www.w3.org/2000/svg">
<path d="M264.764 263.52C212.204 263.52 182.684 212.76 182.684 132.12C182.684 51.12 212.204 0 264.764 0C317.324 0 346.844 51.12 346.844 132.12C346.844 212.76 317.324 263.52 264.764 263.52ZM207.164 132.12C207.164 207.36 227.324 254.88 264.764 254.88C302.204 254.88 322.364 207.36 322.364 132.12C322.364 56.16 302.204 8.64 264.764 8.64C227.324 8.64 207.164 56.16 207.164 132.12Z" fill="white"/>
<path d="M75.0102 263.52C40.4502 263.52 0.490234 240.84 0.490234 219.96C0.490234 213.48 5.89024 208.08 12.7302 208.08C31.8102 208.08 28.5702 254.88 75.0102 254.88C121.81 254.88 140.17 210.24 140.17 176.4C140.17 144 130.81 116.28 98.0502 116.28C86.8902 116.28 72.4902 123.48 63.4902 125.64C60.6102 126.72 58.0902 127.08 55.9302 127.44C54.8502 127.44 54.1302 127.08 54.1302 126V120.96C54.1302 120.24 54.8502 119.16 55.9302 118.8C77.5302 114.12 117.13 97.56 117.13 46.44C117.13 28.08 103.09 8.64 80.0502 8.64C32.5302 8.64 44.0502 55.44 24.9702 55.44C18.1302 55.44 12.7302 50.04 12.7302 43.56C12.7302 21.6 46.2102 0 82.2102 0C115.33 0 141.61 18.36 141.61 47.16C141.61 72.36 122.53 93.24 101.65 107.28H103.81C145.57 107.28 164.65 137.16 164.65 171.36C164.65 222.12 126.85 263.52 75.0102 263.52Z" fill="white"/>
<path d="M383.03 157.992C382.646 157.992 382.39 157.736 382.39 157.352V142.12H367.158C366.774 142.12 366.518 141.864 366.518 141.48V137.512C366.518 137.128 366.774 136.872 367.158 136.872H382.39V121.64C382.39 121.256 382.646 121 383.03 121H386.998C387.382 121 387.638 121.256 387.638 121.64V136.872H402.87C403.254 136.872 403.51 137.128 403.51 137.512V141.48C403.51 141.864 403.254 142.12 402.87 142.12H387.638V157.352C387.638 157.736 387.382 157.992 386.998 157.992H383.03Z" fill="white"/>
</svg>
