<svg width="520" height="501" viewBox="0 0 520 501" fill="none" xmlns="http://www.w3.org/2000/svg">
<g opacity="0.5" clip-path="url(#clip0_434_28058)">
<path d="M491.278 224.549C465.759 245.573 402.981 281.335 326.475 303.199C245.267 326.403 139.588 326.598 122.609 330.264C111.683 332.615 114.813 337.999 118.431 341.556C120.44 343.517 122.816 345.076 125.349 346.269C142.439 354.296 237.301 394.273 351.579 352.542C458.561 313.479 487.599 246.157 493.994 226.437C494.53 224.805 492.605 223.477 491.278 224.561V224.549Z" fill="url(#paint0_linear_434_28058)" fill-opacity="0.25"/>
<path d="M490.912 0.3171C489.487 -0.559901 487.794 0.901767 488.403 2.46088C503.471 40.6469 497.49 58.187 467.087 99.4303C435.552 142.233 343.942 173.768 232.819 191.783C121.695 209.798 75.1411 230.079 39.8419 249.02C39.8419 249.02 11.7657 263.758 3.45852 283.929C-4.84862 304.113 4.51823 341.409 81.1461 411.789C110.501 438.744 172.756 480.122 199.785 493.63C226.814 507.15 262.101 498.137 297.4 477.856C326.353 461.217 361.372 422.349 373.017 408.926C374.15 407.623 372.858 405.65 371.202 406.174C355.27 411.192 309.081 424.408 265.864 423.799C212.55 423.044 161.489 408.78 134.46 397.513C107.432 386.246 51.1211 349.461 57.1261 319.424C59.952 305.306 79.855 296.67 100.16 291.469C103.437 290.629 106.725 289.886 109.953 289.216L145.07 284.173C145.07 284.173 145.033 284.173 145.009 284.149C149.467 283.661 153.925 283.113 158.359 282.456C197.617 276.645 325.366 255.561 407.78 216.559C506.138 170.005 516.65 116.69 518.903 64.1311C520.657 23.1922 500.097 5.94452 490.912 0.3171Z" fill="url(#paint1_linear_434_28058)" fill-opacity="0.25"/>
</g>
<defs>
<linearGradient id="paint0_linear_434_28058" x1="304.572" y1="224.167" x2="304.572" y2="371.247" gradientUnits="userSpaceOnUse">
<stop offset="0.25" stop-color="#D4B183"/>
<stop offset="1" stop-color="#D4B183" stop-opacity="0"/>
</linearGradient>
<linearGradient id="paint1_linear_434_28058" x1="259.993" y1="0.0532227" x2="259.993" y2="500.059" gradientUnits="userSpaceOnUse">
<stop offset="0.25" stop-color="#D4B183"/>
<stop offset="1" stop-color="#D4B183" stop-opacity="0"/>
</linearGradient>
<clipPath id="clip0_434_28058">
<rect width="518.027" height="500" fill="white" transform="translate(0.986328 0.0493164)"/>
</clipPath>
</defs>
</svg>
