<svg width="98" height="85" viewBox="0 0 98 85" fill="none" xmlns="http://www.w3.org/2000/svg">
<path d="M64.2789 84.2664L46.5909 66.6664L48.9016 64.3558L64.2789 79.6438L95.1242 48.7104L97.4349 51.0224L64.2789 84.2664ZM46.4122 30.4891L87.3909 3.46642H5.52423L46.4122 30.4891ZM46.4122 34.4891L3.30156 5.77709V63.9104C3.30156 65.1549 3.70156 66.1771 4.50156 66.9771C5.30156 67.7771 6.32379 68.1771 7.56823 68.1771H33.8349L37.0349 71.3771H7.56823C5.44823 71.3771 3.67356 70.6629 2.24423 69.2344C0.815786 67.8051 0.101562 66.0304 0.101562 63.9104V7.73309C0.101562 5.61309 0.815786 3.83842 2.24423 2.40909C3.67356 0.980642 5.44823 0.266418 7.56823 0.266418H85.3456C87.4656 0.266418 89.2402 0.980642 90.6696 2.40909C92.098 3.83842 92.8122 5.61309 92.8122 7.73309V36.7998L89.6122 39.9998V5.77709L46.4122 34.4891Z" fill="#EAEFF4"/>
</svg>
