<svg width="180" height="40" viewBox="0 0 180 40" fill="none" xmlns="http://www.w3.org/2000/svg">
<g clip-path="url(#clip0_348_2484)">
<path d="M15.5903 18.3765C14.9445 19.2587 14.2649 19.8382 13.5517 20.1228C12.8384 20.4074 11.9281 20.5471 10.8232 20.5471H9.25664C7.85089 20.5471 6.98722 20.3272 6.6682 19.89C6.34919 19.4528 6.18838 17.991 6.18838 15.5073V10.5452H8.4993C9.39669 10.5452 10.0373 10.6047 10.4134 10.7237C10.7895 10.8427 11.0774 11.0988 11.2745 11.4973C11.4716 11.8957 11.5676 12.6744 11.5676 13.8386H12.2964V6.66445H11.5676C11.5676 7.69413 11.5027 8.38749 11.373 8.74452C11.2434 9.09896 10.9762 9.36544 10.5664 9.54136C10.1592 9.71729 9.44338 9.80266 8.4189 9.80266H6.18579V1.00375H9.10102C10.5664 1.00375 11.635 1.08395 12.2938 1.24177C12.9551 1.40217 13.5257 1.78766 14.0056 2.40081C14.4854 3.01397 14.8926 4.05142 15.2246 5.51575H15.9534L15.458 0.287109H0.433135V0.998577C1.44465 0.998577 2.11121 1.09689 2.42504 1.30127C2.73887 1.50307 2.94117 1.85751 3.02935 2.35942C3.11753 2.86392 3.16163 3.91689 3.16163 5.51316V15.7945C3.16163 17.5486 3.12013 18.6378 3.03713 19.0647C2.95414 19.4916 2.75961 19.8434 2.45616 20.1228C2.15011 20.4022 1.47836 20.5419 0.433135 20.5419H0V21.2534H17.411L17.8623 14.7286H17.1179C16.747 16.2731 16.2361 17.4891 15.5929 18.3713L15.5903 18.3765Z" fill="white"/>
<path d="M31.6968 20.5038C31.4089 20.6254 30.8539 20.6849 30.0343 20.6849V21.2618H36.7258V20.6849C36.1319 20.6254 35.6858 20.4805 35.3901 20.2528C35.0944 20.0226 34.8558 19.7095 34.682 19.3085L33.904 17.5311L28.2187 4.04688H27.7285L22.7825 15.8262C22.422 16.6696 22.2197 17.1534 22.1808 17.2802C21.6621 18.6074 21.2185 19.4767 20.8503 19.8906C20.482 20.3046 19.9217 20.5684 19.167 20.6849V21.2618H24.2246V20.6849C23.6799 20.6849 23.2338 20.5529 22.8888 20.289C22.5413 20.0277 22.3675 19.6397 22.3675 19.13C22.3675 18.654 22.6943 17.6372 23.3453 16.0746L23.7836 14.9957H30.2469L31.5515 18.1391C31.9354 19.0498 32.1299 19.5957 32.1299 19.7794C32.1299 20.139 31.9847 20.3796 31.6968 20.5012V20.5038ZM24.0223 14.4369L27.0231 7.20062L30.0343 14.4369H24.0223Z" fill="white"/>
<path d="M47.7332 14.6139V14.6113H47.728L47.7332 14.6139Z" fill="white"/>
<path d="M52.7152 20.2336V18.4303C52.7152 16.9686 52.7593 16.0501 52.8526 15.6698C52.946 15.2895 53.1353 15.0204 53.4232 14.8575C53.7111 14.6945 54.261 14.6143 55.0754 14.6143V14.014H47.7328V14.6117H48.1297C48.8014 14.6117 49.2605 14.6634 49.5121 14.7669C49.7636 14.8704 49.9478 15.0774 50.0723 15.3801C50.1942 15.6853 50.2538 16.2933 50.2538 17.2014C50.2538 17.9776 50.1242 18.6192 49.8648 19.1288C49.608 19.6385 49.1204 20.0706 48.4072 20.425C47.6965 20.7794 46.9055 20.958 46.0366 20.958C44.3378 20.958 42.9165 20.3293 41.7701 19.0745C40.6237 17.8172 40.0505 15.6828 40.0505 12.6713C40.0505 9.65986 40.6445 7.54615 41.8323 6.36123C43.0202 5.17632 44.4156 4.58386 46.0107 4.58386C47.6057 4.58386 48.874 5.09094 49.9582 6.11028C51.0423 7.12962 51.7037 8.50857 51.9475 10.2549H52.5492V4.58386H51.9475C51.8723 5.25911 51.6959 5.89037 51.421 6.47507C49.9296 4.80635 48.0493 3.9707 45.7721 3.9707C43.1266 3.9707 41.0361 4.88656 39.4955 6.71309C37.9549 8.54221 37.1846 10.6688 37.1846 13.0982C37.1846 15.5275 37.9938 17.5791 39.6096 19.1754C41.2254 20.7717 43.2485 21.5737 45.6839 21.5737C46.8977 21.5737 48.2152 21.3072 49.6391 20.7717C50.687 20.3784 51.5299 20.1844 52.1731 20.1844C52.3313 20.1844 52.5129 20.1999 52.7126 20.2336H52.7152Z" fill="white"/>
<path d="M71.2599 16.263H70.6685C70.2925 17.6083 69.8749 18.5889 69.421 19.2046H69.4184C68.9645 19.8229 68.4795 20.2265 67.9763 20.4102C67.4706 20.5939 66.6951 20.687 65.6473 20.687H64.3531C63.3753 20.687 62.7346 20.6017 62.439 20.4283C62.1433 20.2576 61.9591 20.017 61.8943 19.7065C61.8269 19.396 61.7957 18.6277 61.7957 17.4013V8.51188C61.7957 7.10188 61.8398 6.20673 61.928 5.83159C62.0162 5.45645 62.1874 5.19774 62.4493 5.06062C62.7087 4.9235 63.256 4.85623 64.0937 4.85623H64.8458V4.2793H56.6733V4.85623H57.0494C57.9131 4.85623 58.4707 4.93126 58.7249 5.08131C58.9791 5.23137 59.1477 5.50302 59.2281 5.89368C59.3085 6.28693 59.3474 7.1588 59.3474 8.50929V16.8348C59.3474 18.2525 59.3085 19.158 59.2281 19.5461C59.1477 19.9342 58.9713 20.2188 58.6886 20.405C58.4085 20.5887 57.9053 20.6819 57.1765 20.6819H56.6733V21.2588H71.1328L71.2599 16.263Z" fill="white"/>
<path d="M85.1692 18.9232C84.6453 19.6399 84.0955 20.1107 83.5171 20.341C82.9387 20.5712 82.2021 20.6851 81.3099 20.6851H80.0416C78.903 20.6851 78.2054 20.5066 77.946 20.1521C77.684 19.7977 77.557 18.6128 77.557 16.6025V12.5821H79.427C80.1532 12.5821 80.6719 12.6287 80.9754 12.727C81.2814 12.8227 81.5122 13.0323 81.673 13.3531C81.8312 13.6739 81.9117 14.3077 81.9117 15.2495H82.5004V9.44131H81.9117C81.9117 10.2744 81.8598 10.8384 81.756 11.123C81.6523 11.4101 81.4344 11.6275 81.105 11.7672C80.773 11.9095 80.1947 11.9793 79.3647 11.9793H77.557V4.85428H79.9172C81.105 4.85428 81.9661 4.91896 82.503 5.04832C83.0399 5.17767 83.5015 5.49072 83.888 5.98745C84.277 6.48419 84.6064 7.32501 84.8736 8.50993H85.4649L85.0629 4.27734H72.8988V4.85428C73.7184 4.85428 74.2553 4.93448 74.512 5.09747C74.7688 5.26046 74.9322 5.54764 75.0022 5.95641C75.0723 6.36518 75.1086 7.21635 75.1086 8.50993V16.8354C75.1086 18.2532 75.0749 19.138 75.01 19.4821C74.9426 19.8287 74.7844 20.1159 74.538 20.341C74.2916 20.5661 73.7443 20.6799 72.9014 20.6799H72.5513V21.2568H86.6476L87.0133 15.9739H86.4116C86.1107 17.2261 85.6983 18.2092 85.1744 18.9232H85.1692Z" fill="white"/>
<path d="M112.415 15.3082C110.462 12.6796 109.046 11.1532 108.167 10.7315C110.13 10.4961 111.619 9.89328 112.63 8.92051C113.642 7.95033 114.15 6.78093 114.15 5.41233C114.15 4.23776 113.761 3.22618 112.986 2.38277C112.21 1.53677 111.194 0.928789 109.938 0.558825C108.683 0.188862 107.052 0 105.049 0C103.872 0 102.279 0.0465688 100.274 0.139706L97.2684 0.292349V1.00382H97.6237C98.6871 1.00382 99.3822 1.09695 99.7012 1.28323C100.02 1.4695 100.228 1.80325 100.321 2.28705C100.414 2.77084 100.461 3.84969 100.461 5.5184V15.7998C100.461 17.5538 100.414 18.6689 100.321 19.1475C100.228 19.6262 100.007 19.9806 99.6623 20.2057C99.3174 20.4333 98.6923 20.5472 97.7949 20.5472H97.1128V21.2586H107.173V20.5472H106.167C105.218 20.5472 104.572 20.4256 104.237 20.1772C103.9 19.9289 103.695 19.5511 103.618 19.0415C103.54 18.5318 103.501 17.4504 103.501 15.8023V11.1481H104.336C104.904 11.1481 105.324 11.2438 105.591 11.4352C105.858 11.6267 106.351 12.157 107.065 13.0289C107.778 13.9008 108.465 14.8115 109.126 15.7584C111.194 18.7258 112.729 20.5627 113.73 21.2612H119.387V20.5524C118.15 20.511 117.073 20.1591 116.166 19.502C115.255 18.8422 114.005 17.4452 112.415 15.3108V15.3082ZM105.905 10.346C105.078 10.3848 104.276 10.4159 103.503 10.4366V0.851174C103.999 0.809779 104.44 0.789082 104.821 0.789082C107.303 0.789082 108.911 1.23407 109.65 2.11888C110.39 3.00627 110.758 4.18602 110.758 5.65811C110.758 6.50411 110.649 7.21557 110.434 7.79251C110.216 8.36945 109.92 8.83772 109.544 9.19216C109.168 9.5466 108.675 9.81825 108.063 10.0045C107.454 10.1908 106.735 10.3046 105.91 10.346H105.905Z" fill="white"/>
<path d="M119.39 20.5495H119.392L119.39 20.5469V20.5495Z" fill="white"/>
<path d="M136.948 6.32306C135.169 4.75266 132.954 3.96875 130.304 3.96875C127.653 3.96875 125.485 4.76301 123.726 6.34893C121.968 7.93486 121.088 10.0382 121.088 12.659C121.088 15.2798 121.955 17.5047 123.687 19.1321C125.42 20.7594 127.637 21.5743 130.34 21.5743C133.042 21.5743 135.358 20.762 137.063 19.1321C138.767 17.5047 139.617 15.3781 139.617 12.747C139.617 10.1158 138.728 7.89346 136.948 6.32306ZM135.058 18.8992V18.894C133.945 20.2627 132.433 20.9482 130.516 20.9482C128.332 20.9482 126.696 20.2627 125.601 18.894C124.509 17.5254 123.965 15.4764 123.965 12.747C123.965 10.0175 124.509 8.03058 125.601 6.6568C126.693 5.28302 128.265 4.59743 130.314 4.59743C132.363 4.59743 133.986 5.30113 135.084 6.70855C136.181 8.11337 136.728 10.1365 136.728 12.7754C136.728 15.4143 136.17 17.528 135.058 18.8992Z" fill="white"/>
<path d="M151.193 4.60778C152.648 4.60778 153.955 5.05535 155.117 5.94792C156.276 6.84049 157.044 8.43159 157.42 10.716H157.959L157.809 4.2818H157.257C157.181 5.03983 156.963 5.77458 156.606 6.48346C156.097 5.84961 155.324 5.27009 154.289 4.75007C153.257 4.22747 152.103 3.96875 150.83 3.96875C149.289 3.96875 147.875 4.32836 146.586 5.04759C145.297 5.76682 144.294 6.86378 143.575 8.34622C142.854 9.82866 142.494 11.4068 142.494 13.0833C142.494 15.6368 143.274 17.691 144.836 19.2433C146.397 20.7956 148.407 21.5717 150.868 21.5717C153.195 21.5717 155.106 20.7283 156.606 19.0441C157 19.5641 157.272 20.1592 157.42 20.837H157.959V14.8891H157.42C157.321 15.8748 156.992 16.8968 156.434 17.9497C155.877 19.0053 155.122 19.7556 154.17 20.198C153.218 20.6404 152.285 20.8629 151.372 20.8629C149.662 20.8629 148.236 20.185 147.09 18.8294C145.943 17.4737 145.37 15.523 145.37 12.9746C145.37 10.2866 145.896 8.22203 146.944 6.7784C147.995 5.33477 149.411 4.61036 151.193 4.61036V4.60778Z" fill="white"/>
<path d="M178.078 20.2265V20.2213C177.583 19.9109 176.607 19.0183 175.152 17.5411L168.777 11.1171L171.879 8.26352C173.085 7.13552 173.908 6.39818 174.354 6.04632C174.797 5.69706 175.285 5.41247 175.816 5.19515C176.348 4.97783 176.877 4.86658 177.404 4.85623V4.2793H170.99V4.85623C172.196 4.88987 172.797 5.25207 172.797 5.94542C172.797 6.40335 172.196 7.17174 170.99 8.25058L165.795 12.9204V8.51188C165.795 7.10188 165.839 6.20673 165.927 5.83159C166.015 5.45645 166.189 5.19774 166.448 5.06062C166.708 4.9235 167.255 4.85623 168.093 4.85623H168.406V4.2793H160.875V4.85623C161.829 4.85623 162.436 4.9235 162.695 5.05803C162.952 5.19256 163.128 5.45128 163.217 5.83676C163.305 6.21966 163.349 7.11223 163.349 8.51706V16.8425C163.349 18.2603 163.307 19.1658 163.23 19.5539C163.149 19.9419 162.968 20.2265 162.69 20.4128C162.41 20.5965 161.907 20.6896 161.178 20.6896H160.649V21.2666H168.292V20.6896H167.966C167.195 20.6896 166.674 20.5913 166.402 20.3895C166.129 20.1877 165.961 19.8824 165.893 19.4711C165.826 19.0571 165.795 18.1827 165.795 16.8477V13.7535L167.014 12.6901L171.822 17.5229C173.036 18.7337 173.643 19.5125 173.643 19.8643C173.643 20.0972 173.524 20.2938 173.293 20.4516C173.057 20.6094 172.463 20.6896 171.511 20.6896H171.171V21.2666H180.008V20.6896C179.222 20.6896 178.581 20.537 178.086 20.2265H178.078Z" fill="white"/>
<path d="M42.2503 38.8127L41.8586 37.9149L38.9901 31.1133H38.7437L36.2486 37.056C36.0671 37.4803 35.9659 37.726 35.9452 37.7881C35.6832 38.4582 35.4601 38.898 35.2734 39.105C35.0867 39.3146 34.804 39.4465 34.4253 39.506V39.7958H36.9774V39.506C36.7025 39.506 36.4794 39.4387 36.3031 39.3068C36.1267 39.1749 36.0411 38.9808 36.0411 38.7221C36.0411 38.4815 36.2045 37.9692 36.5339 37.1802L36.7544 36.6369H40.0146L40.6733 38.2228C40.8679 38.6807 40.9638 38.9575 40.9638 39.0507C40.9638 39.2318 40.8912 39.3534 40.746 39.4129C40.6007 39.475 40.3206 39.5034 39.9082 39.5034V39.7932H43.2825V39.5034C42.9817 39.475 42.7586 39.4025 42.6082 39.2861C42.4577 39.1697 42.3384 39.0119 42.2503 38.8101V38.8127ZM36.8737 36.3549L38.3858 32.7044L39.9056 36.3549H36.8737Z" fill="white"/>
<path d="M56.764 31.7266C56.0507 31.3386 55.0574 31.1445 53.7813 31.1445C53.3715 31.1445 52.5779 31.173 51.4004 31.2325L49.9894 31.3023V31.5921H50.2436C50.6793 31.5921 50.9594 31.6283 51.0891 31.7034C51.2188 31.7784 51.3018 31.9129 51.3433 32.1147C51.3822 32.3139 51.403 32.7563 51.403 33.4368V37.5684C51.403 38.2851 51.3822 38.7404 51.3433 38.937C51.3044 39.1337 51.2136 39.276 51.071 39.3691C50.9309 39.4622 50.6742 39.5088 50.3085 39.5088H49.9531V39.7986H53.758C54.4712 39.7986 55.0237 39.7753 55.4179 39.7313C55.8095 39.6873 56.2245 39.5761 56.6628 39.3976C57.0986 39.219 57.485 38.9577 57.8144 38.6136C58.1464 38.2696 58.4057 37.8401 58.5977 37.3201C58.787 36.8001 58.883 36.2257 58.883 35.5996C58.883 34.7329 58.7092 33.9671 58.3616 33.3048C58.0141 32.6425 57.4824 32.1173 56.7692 31.7292L56.764 31.7266ZM57.0182 37.9876C56.6939 38.5878 56.2945 38.9888 55.8121 39.1932C55.3297 39.3976 54.7176 39.4985 53.9706 39.4985C53.4597 39.4985 53.1251 39.4493 52.9669 39.351C52.8087 39.2527 52.7127 39.0793 52.6816 38.8361C52.6505 38.593 52.6349 38.0471 52.6349 37.2011V31.4783C52.9643 31.4576 53.2885 31.4472 53.6101 31.4472C54.2767 31.4472 54.8239 31.5119 55.2493 31.6387C55.6747 31.768 56.0637 32.0086 56.4138 32.3657C56.764 32.7227 57.0337 33.1832 57.2205 33.7524C57.4072 34.3216 57.5032 34.9683 57.5032 35.6928C57.5032 36.6241 57.3424 37.3873 57.0182 37.9901V37.9876Z" fill="white"/>
<path d="M71.7369 31.5222C72.4242 31.5403 72.7691 31.7887 72.7691 32.275C72.7691 32.5157 72.6032 33.0305 72.2686 33.8222L70.2871 38.5541L67.8179 32.8701C67.6182 32.4199 67.5197 32.1328 67.5197 32.0112C67.5197 31.8223 67.5975 31.6929 67.7583 31.6257C67.9165 31.5584 68.2251 31.5248 68.6868 31.5248V31.235H64.9883V31.5248C65.3929 31.5325 65.686 31.6076 65.8675 31.7447C66.0491 31.8844 66.2228 32.156 66.3862 32.5596C66.5056 32.8597 66.5911 33.0693 66.6456 33.1909L69.6101 40.0003H70.0017L72.5539 33.9489L73.1297 32.6036C73.2775 32.2543 73.4539 31.9879 73.6562 31.8068C73.8585 31.6257 74.0919 31.5299 74.359 31.5222V31.2324H71.7369V31.5222Z" fill="white"/>
<path d="M81.2246 31.5229H81.4088C81.8445 31.5229 82.1272 31.5617 82.2569 31.6367C82.3865 31.7117 82.4721 31.8489 82.511 32.0481C82.5499 32.2473 82.5681 32.6871 82.5681 33.3675V37.5691C82.5681 38.2857 82.5499 38.741 82.511 38.9377C82.4721 39.1343 82.384 39.2766 82.2413 39.3697C82.1012 39.4628 81.8445 39.5094 81.4788 39.5094H81.2246V39.7992H85.1513V39.5094H84.8972C84.5081 39.5094 84.2462 39.4577 84.1087 39.3568C83.9713 39.2559 83.8883 39.1006 83.8545 38.8937C83.8234 38.6867 83.8079 38.2443 83.8079 37.5716V33.3701C83.8079 32.6586 83.8286 32.2085 83.8753 32.0196C83.922 31.8307 84.0076 31.7014 84.1372 31.6315C84.2669 31.5617 84.5444 31.528 84.9672 31.528H85.1513V31.2383H81.2246V31.528V31.5229Z" fill="white"/>
<path d="M97.2788 35.4239C96.9442 35.2247 96.4047 34.9608 95.6682 34.6322C94.8953 34.2882 94.361 33.9751 94.0653 33.6983C93.7644 33.424 93.6166 33.0903 93.6166 32.6945C93.6166 32.3659 93.7359 32.0632 93.9745 31.789C94.2131 31.5121 94.5866 31.375 95.0976 31.375C95.6085 31.375 96.1039 31.5613 96.5137 31.9364C96.9209 32.3116 97.2062 32.8238 97.367 33.4784H97.6445V31.2353H97.367C97.341 31.5044 97.2321 31.7553 97.0376 31.9882C96.7004 31.6182 96.371 31.3724 96.0494 31.256C95.7278 31.137 95.3855 31.0801 95.0223 31.0801C94.3713 31.0801 93.8345 31.2845 93.4117 31.6906C92.9864 32.0968 92.7763 32.6065 92.7763 33.2171C92.7763 33.6181 92.8748 33.9932 93.0693 34.3477C93.2639 34.7021 93.5388 34.9893 93.8889 35.2092C94.2391 35.4317 94.7578 35.6878 95.4477 35.9827C96.2206 36.3113 96.7523 36.6192 97.0428 36.9038C97.3333 37.1935 97.4811 37.5531 97.4811 37.9826C97.4811 38.4121 97.3151 38.7924 96.9831 39.1365C96.6511 39.4806 96.1843 39.6513 95.58 39.6513C94.2365 39.6513 93.3858 38.7536 93.0278 36.9607H92.7114V39.7134H93.0278C93.0953 39.3564 93.199 39.077 93.3391 38.8804C93.9667 39.5996 94.7526 39.9592 95.6941 39.9592C96.5137 39.9592 97.1673 39.7289 97.6575 39.271C98.1477 38.8131 98.3915 38.2155 98.3915 37.4833C98.3915 37.0202 98.2903 36.6114 98.088 36.257C97.8857 35.9025 97.616 35.6257 97.2814 35.4265L97.2788 35.4239Z" fill="white"/>
<path d="M114.135 32.2617C113.238 31.4701 112.12 31.0742 110.782 31.0742C109.443 31.0742 108.349 31.4752 107.464 32.2747C106.577 33.0741 106.134 34.1348 106.134 35.4569C106.134 36.7789 106.57 37.9017 107.444 38.7218C108.318 39.542 109.435 39.9533 110.8 39.9533C112.164 39.9533 113.331 39.542 114.19 38.7218C115.048 37.9017 115.479 36.8281 115.479 35.5008C115.479 34.1736 115.03 33.0534 114.133 32.2617H114.135ZM113.181 38.6028C112.618 39.2936 111.855 39.6377 110.888 39.6377C109.786 39.6377 108.961 39.2936 108.408 38.6028C107.859 37.9121 107.581 36.8772 107.581 35.5008C107.581 34.1245 107.856 33.1207 108.408 32.4273C108.958 31.7339 109.752 31.3873 110.787 31.3873C111.822 31.3873 112.639 31.7417 113.194 32.4506C113.746 33.1595 114.024 34.1814 114.024 35.5112C114.024 36.841 113.743 37.9095 113.181 38.6003V38.6028Z" fill="white"/>
<path d="M129.201 37.3671C128.402 36.2934 127.824 35.6699 127.466 35.4966C128.268 35.4008 128.877 35.1525 129.289 34.7566C129.702 34.3608 129.909 33.8822 129.909 33.3233C129.909 32.8421 129.751 32.4308 129.435 32.0841C129.118 31.74 128.703 31.4916 128.19 31.339C127.676 31.1864 127.01 31.1113 126.193 31.1113C125.71 31.1113 125.062 31.1294 124.242 31.1682L123.013 31.2303V31.5201H123.158C123.594 31.5201 123.877 31.5589 124.006 31.6339C124.136 31.709 124.222 31.8461 124.26 32.0453C124.299 32.2445 124.318 32.6843 124.318 33.3647V37.5663C124.318 38.2829 124.299 38.7383 124.26 38.9349C124.222 39.1315 124.133 39.2738 123.991 39.3669C123.851 39.4601 123.594 39.5066 123.228 39.5066H122.951V39.7964H127.059V39.5066H126.647C126.258 39.5066 125.996 39.4549 125.858 39.354C125.721 39.2531 125.635 39.0979 125.604 38.8909C125.573 38.6839 125.557 38.2415 125.557 37.5689V35.6673H125.9C126.13 35.6673 126.302 35.7061 126.413 35.7837C126.522 35.8613 126.724 36.0787 127.015 36.4357C127.305 36.7927 127.588 37.1627 127.858 37.5508C128.701 38.7641 129.328 39.5118 129.738 39.799H132.049V39.5092C131.543 39.4937 131.102 39.3488 130.732 39.0798C130.361 38.8107 129.85 38.2389 129.199 37.3671H129.201ZM126.543 35.3387C126.206 35.3568 125.879 35.3672 125.562 35.3775V31.4606C125.765 31.4451 125.944 31.4347 126.102 31.4347C127.116 31.4347 127.772 31.6158 128.073 31.978C128.374 32.3402 128.527 32.8214 128.527 33.4242C128.527 33.7683 128.483 34.0607 128.395 34.2961C128.307 34.5315 128.185 34.723 128.032 34.8679C127.879 35.0128 127.676 35.124 127.427 35.199C127.178 35.2741 126.885 35.3206 126.548 35.3387H126.543Z" fill="white"/>
<path d="M143.876 35.4239C143.542 35.2247 143.002 34.9608 142.266 34.6322C141.493 34.2882 140.958 33.9751 140.663 33.6983C140.362 33.424 140.214 33.0903 140.214 32.6945C140.214 32.3659 140.333 32.0632 140.572 31.789C140.811 31.5121 141.184 31.375 141.695 31.375C142.232 31.375 142.704 31.5613 143.111 31.9364C143.518 32.3116 143.804 32.8238 143.962 33.4784H144.239V31.2353H143.962C143.936 31.5044 143.827 31.7553 143.632 31.9882C143.295 31.6182 142.966 31.3724 142.644 31.256C142.323 31.137 141.98 31.0801 141.617 31.0801C140.966 31.0801 140.429 31.2845 140.007 31.6906C139.584 32.0968 139.371 32.6065 139.371 33.2171C139.371 33.6181 139.47 33.9932 139.664 34.3477C139.861 34.7021 140.134 34.9893 140.484 35.2092C140.834 35.4317 141.353 35.6878 142.043 35.9827C142.815 36.3113 143.347 36.6192 143.638 36.9038C143.928 37.1935 144.073 37.5531 144.073 37.9826C144.073 38.4121 143.907 38.7924 143.575 39.1365C143.243 39.4806 142.777 39.6513 142.172 39.6513C140.829 39.6513 139.978 38.7536 139.62 36.9607H139.304V39.7134H139.62C139.688 39.3564 139.791 39.077 139.931 38.8804C140.559 39.5996 141.345 39.9592 142.286 39.9592C143.106 39.9592 143.76 39.7289 144.25 39.271C144.74 38.8131 144.984 38.2155 144.984 37.4833C144.984 37.0202 144.883 36.6114 144.68 36.257C144.478 35.9025 144.208 35.6257 143.874 35.4265L143.876 35.4239Z" fill="white"/>
</g>
<defs>
<clipPath id="clip0_348_2484">
<rect width="180" height="40" fill="white"/>
</clipPath>
</defs>
</svg>
