<svg width="40" height="40" viewBox="0 0 40 40" fill="none" xmlns="http://www.w3.org/2000/svg">
<g clip-path="url(#clip0_404_317)">
<path d="M31.8947 6.92081C31.8623 6.89123 31.8123 6.92855 31.8313 6.96798C32.1087 7.53411 32.3031 8.29669 32.2594 9.31277C32.1291 12.3511 31.5215 15.4331 25.8355 18.1244C21.0713 20.379 13.687 21.5979 11.4169 21.9337C11.1599 21.9718 10.9029 22.0035 10.6452 22.0316C10.6473 22.0316 10.6487 22.033 10.6487 22.033L8.62006 22.3245C8.62006 22.3245 8.61795 22.3245 8.61725 22.3245C8.43135 22.3633 8.24194 22.4062 8.05253 22.4541C6.87873 22.7548 5.72746 23.254 5.56481 24.0701C5.21767 25.8065 8.4729 27.933 10.0354 28.5843C11.5979 29.2357 14.5496 30.0602 17.6316 30.1039C20.0187 30.1377 22.5613 29.442 23.5872 29.1265C23.721 29.085 23.8252 29.2455 23.733 29.3511C22.9817 30.2095 21.0573 32.3085 19.4553 33.2288C17.4155 34.4005 15.3749 34.9216 13.8124 34.1407C12.2499 33.3591 8.65105 30.9678 6.95407 29.4096C5.04022 27.6521 3.85234 26.2515 3.15876 25.1334C3.13412 25.0932 3.07286 25.1221 3.08624 25.1672C5.60213 33.4133 13.9821 39.1006 23.3668 37.3699C30.354 36.0813 35.8928 30.6622 37.3039 23.6983C38.6474 17.0674 36.2758 10.909 31.894 6.92151L31.8947 6.92081ZM30.7744 18.8271C30.3237 20.1114 28.5493 23.8068 22.5867 25.9839C15.9804 28.3963 10.4966 26.0853 9.50869 25.6213C9.36152 25.5523 9.22492 25.4629 9.10874 25.3488C8.89961 25.1439 8.71864 24.8327 9.35025 24.6961C10.3325 24.4841 16.4409 24.4729 21.1354 23.1315C25.4553 21.8971 29.019 19.8953 30.5561 18.6708C30.6659 18.5835 30.8201 18.694 30.7744 18.8264V18.8271Z" fill="white"/>
<path d="M4.5671 19.9998C6.60699 18.9049 9.2982 17.7332 15.7228 16.6911C22.1466 15.6497 27.4424 13.8259 29.2655 11.3523C30.6935 9.41451 31.1892 8.38154 30.8568 6.8775C30.7061 6.19378 30.2851 5.6016 29.6999 5.21714C26.915 3.38638 23.5824 2.32031 20.0004 2.32031C10.2361 2.32031 2.32019 10.2362 2.32019 20.0005C2.32019 20.7026 2.36244 21.394 2.44201 22.0742C2.44905 22.0552 2.45609 22.0369 2.46383 22.0186C2.94406 20.8518 4.5671 20.0005 4.5671 20.0005V19.9998Z" fill="white"/>
<path d="M19.9996 0C8.95453 0 0 8.95453 0 19.9996C0 31.0448 8.95453 39.9993 19.9996 39.9993C31.0448 39.9993 39.9993 31.0448 39.9993 19.9996C39.9993 8.95453 31.0455 0 19.9996 0ZM33.6437 33.6437C31.8714 35.4161 29.8076 36.8074 27.51 37.7791C25.1314 38.7854 22.605 39.2952 19.9996 39.2952C17.3943 39.2952 14.8672 38.7854 12.4893 37.7791C10.1917 36.8074 8.12787 35.4161 6.35556 33.6437C4.58324 31.8714 3.19186 29.8076 2.22015 27.51C1.21393 25.1314 0.704139 22.605 0.704139 19.9996C0.704139 17.3943 1.21393 14.8672 2.22015 12.4893C3.19186 10.1917 4.58324 8.12787 6.35556 6.35556C8.12787 4.58324 10.1917 3.19186 12.4893 2.22015C14.8679 1.21393 17.3943 0.704139 19.9996 0.704139C22.605 0.704139 25.1321 1.21393 27.51 2.22015C29.8076 3.19186 31.8714 4.58324 33.6437 6.35556C35.4161 8.12787 36.8074 10.1917 37.7791 12.4893C38.7854 14.8679 39.2952 17.3943 39.2952 19.9996C39.2952 22.605 38.7854 25.1321 37.7791 27.51C36.8074 29.8076 35.4161 31.8714 33.6437 33.6437Z" fill="white"/>
</g>
<defs>
<clipPath id="clip0_404_317">
<rect width="40" height="40" fill="white"/>
</clipPath>
</defs>
</svg>
