<svg width="350" height="338" viewBox="0 0 350 338" fill="none" xmlns="http://www.w3.org/2000/svg">
<g opacity="0.5" clip-path="url(#clip0_213_571)">
<path d="M331.263 151.762C314.022 165.974 271.606 190.149 219.915 204.929C165.048 220.615 93.6475 220.747 82.1753 223.225C74.7933 224.814 76.9083 228.454 79.3525 230.858C80.7104 232.184 82.3152 233.238 84.027 234.045C95.5732 239.471 159.666 266.495 236.877 238.285C309.158 211.879 328.778 166.369 333.098 153.038C333.46 151.935 332.16 151.037 331.263 151.77V151.762Z" fill="url(#paint0_linear_213_571)" fill-opacity="0.25"/>
<path d="M331.013 0.181066C330.05 -0.411786 328.906 0.576301 329.317 1.63026C339.497 27.444 335.457 39.3011 314.915 67.1816C293.609 96.1161 231.713 117.434 156.634 129.612C81.5546 141.79 50.1008 155.5 26.2511 168.304C26.2511 168.304 7.28174 178.267 1.6691 191.903C-3.94354 205.547 2.38508 230.759 54.158 278.336C73.9915 296.558 116.053 324.529 134.315 333.661C152.577 342.8 176.418 336.707 200.268 322.997C219.83 311.75 243.49 285.475 251.357 276.401C252.123 275.52 251.251 274.186 250.131 274.54C239.367 277.932 208.16 286.866 178.961 286.455C142.94 285.944 108.441 276.302 90.1793 268.686C71.9176 261.069 33.8718 236.202 37.9291 215.897C39.8383 206.354 53.2856 200.516 67.0045 197C69.2183 196.432 71.4403 195.929 73.6212 195.477L97.3473 192.068C97.3473 192.068 97.3226 192.068 97.3062 192.051C100.318 191.722 103.33 191.351 106.326 190.907C132.85 186.979 219.163 172.726 274.845 146.36C341.3 114.89 348.402 78.8493 349.924 43.3193C351.109 15.6446 337.218 3.9852 331.013 0.181066Z" fill="url(#paint1_linear_213_571)" fill-opacity="0.25"/>
</g>
<defs>
<linearGradient id="paint0_linear_213_571" x1="205.117" y1="151.504" x2="205.117" y2="250.93" gradientUnits="userSpaceOnUse">
<stop stop-color="white"/>
<stop offset="1" stop-color="white" stop-opacity="0"/>
</linearGradient>
<linearGradient id="paint1_linear_213_571" x1="174.994" y1="0.00268555" x2="174.994" y2="338.007" gradientUnits="userSpaceOnUse">
<stop stop-color="white"/>
<stop offset="1" stop-color="white" stop-opacity="0"/>
</linearGradient>
<clipPath id="clip0_213_571">
<rect width="350" height="338" fill="white"/>
</clipPath>
</defs>
</svg>
