<svg width="40" height="41" viewBox="0 0 40 41" fill="none" xmlns="http://www.w3.org/2000/svg">
<g clip-path="url(#clip0_451_43338)">
<path d="M31.8943 7.86563C31.8619 7.83606 31.8119 7.87338 31.8309 7.91281C32.1084 8.47894 32.3027 9.24152 32.259 10.2576C32.1288 13.2959 31.5211 16.378 25.8352 19.0692C21.071 21.3238 13.6867 22.5427 11.4165 22.8786C11.1595 22.9166 10.9025 22.9483 10.6448 22.9764C10.6469 22.9764 10.6483 22.9779 10.6483 22.9779L8.6197 23.2694C8.6197 23.2694 8.61758 23.2694 8.61688 23.2694C8.43099 23.3081 8.24157 23.351 8.05216 23.3989C6.87836 23.6996 5.7271 24.1988 5.56444 25.0149C5.2173 26.7513 8.47253 28.8778 10.035 29.5292C11.5975 30.1805 14.5492 31.005 17.6313 31.0487C20.0183 31.0825 22.5609 30.3868 23.5869 30.0713C23.7207 30.0298 23.8249 30.1903 23.7326 30.296C22.9813 31.1543 21.0569 33.2533 19.455 34.1737C17.4151 35.3453 15.3745 35.8664 13.812 35.0855C12.2495 34.3039 8.65068 31.9127 6.95371 30.3544C5.03986 28.5969 3.85198 27.1963 3.1584 26.0782C3.13375 26.038 3.07249 26.0669 3.08587 26.112C5.60176 34.3581 13.9817 40.0455 23.3665 38.3147C30.3536 37.0261 35.8924 31.6071 37.3035 24.6431C38.647 18.0123 36.2754 11.8539 31.8936 7.86634L31.8943 7.86563ZM30.774 19.7719C30.3234 21.0563 28.5489 24.7516 22.5863 26.9288C15.9801 29.3412 10.4962 27.0302 9.50832 26.5661C9.36115 26.4971 9.22455 26.4077 9.10837 26.2936C8.89924 26.0887 8.71828 25.7775 9.34989 25.6409C10.3322 25.429 16.4406 25.4177 21.1351 24.0763C25.4549 22.842 29.0186 20.8401 30.5557 19.6156C30.6656 19.5283 30.8198 19.6388 30.774 19.7712V19.7719Z" fill="white"/>
<path d="M4.56722 20.9446C6.60711 19.8497 9.29833 18.678 15.7229 17.6359C22.1467 16.5945 27.4426 14.7708 29.2656 12.2971C30.6936 10.3593 31.1893 9.32636 30.8569 7.82232C30.7062 7.1386 30.2852 6.54642 29.7 6.16196C26.9152 4.3312 23.5825 3.26514 20.0005 3.26514C10.2362 3.26514 2.32031 11.1811 2.32031 20.9454C2.32031 21.6474 2.36256 22.3388 2.44213 23.019C2.44917 23 2.45621 22.9817 2.46396 22.9634C2.94418 21.7967 4.56722 20.9454 4.56722 20.9454V20.9446Z" fill="white"/>
<path d="M19.9996 0.944824C8.95453 0.944824 0 9.89935 0 20.9445C0 31.9896 8.95453 40.9441 19.9996 40.9441C31.0448 40.9441 39.9993 31.9896 39.9993 20.9445C39.9993 9.89935 31.0455 0.944824 19.9996 0.944824ZM33.6437 34.5886C31.8714 36.3609 29.8076 37.7523 27.51 38.724C25.1314 39.7302 22.605 40.24 19.9996 40.24C17.3943 40.24 14.8672 39.7302 12.4893 38.724C10.1917 37.7523 8.12787 36.3609 6.35556 34.5886C4.58324 32.8162 3.19186 30.7524 2.22015 28.4548C1.21393 26.0762 0.704139 23.5498 0.704139 20.9445C0.704139 18.3392 1.21393 15.812 2.22015 13.4341C3.19186 11.1365 4.58324 9.0727 6.35556 7.30038C8.12787 5.52806 10.1917 4.13668 12.4893 3.16497C14.8679 2.15876 17.3943 1.64896 19.9996 1.64896C22.605 1.64896 25.1321 2.15876 27.51 3.16497C29.8076 4.13668 31.8714 5.52806 33.6437 7.30038C35.4161 9.0727 36.8074 11.1365 37.7791 13.4341C38.7854 15.8127 39.2952 18.3392 39.2952 20.9445C39.2952 23.5498 38.7854 26.0769 37.7791 28.4548C36.8074 30.7524 35.4161 32.8162 33.6437 34.5886Z" fill="white"/>
</g>
<defs>
<clipPath id="clip0_451_43338">
<rect width="40" height="40" fill="white" transform="translate(0 0.944824)"/>
</clipPath>
</defs>
</svg>
