<svg width="312" height="301" viewBox="0 0 312 301" fill="none" xmlns="http://www.w3.org/2000/svg">
<g clip-path="url(#clip0_1_7139)">
<path d="M294.849 135.31C279.529 147.924 241.84 169.382 195.909 182.5C147.155 196.422 83.7108 196.539 73.5169 198.739C66.9575 200.15 68.8368 203.38 71.0087 205.514C72.2153 206.691 73.6412 207.626 75.1623 208.342C85.4219 213.158 142.373 237.144 210.98 212.106C275.207 188.668 292.641 148.275 296.48 136.443C296.802 135.464 295.646 134.667 294.849 135.317V135.31Z" fill="black"/>
<path d="M294.63 0.770631C293.774 0.24443 292.758 1.12143 293.123 2.0569C302.169 24.9685 298.578 35.4925 280.326 60.2386C261.394 85.9201 206.395 104.841 139.682 115.65C72.9684 126.459 45.0194 138.628 23.8273 149.992C23.8273 149.992 6.97167 158.835 1.98444 170.938C-3.00279 183.048 2.62064 205.426 48.6246 247.654C66.2481 263.827 103.623 288.653 119.85 296.758C136.077 304.871 157.261 299.462 178.453 287.294C195.836 277.311 216.86 253.99 223.85 245.936C224.531 245.154 223.755 243.97 222.761 244.285C213.196 247.296 185.466 255.225 159.521 254.86C127.514 254.407 96.8589 245.848 80.6321 239.088C64.4053 232.328 30.5989 210.257 34.204 192.235C35.9005 183.764 47.8494 178.583 60.0396 175.462C62.0067 174.958 63.9811 174.512 65.919 174.11L87.0014 171.084C87.0014 171.084 86.9795 171.084 86.9648 171.07C89.6413 170.777 92.3177 170.448 94.9795 170.054C118.548 166.568 195.243 153.917 244.721 130.516C303.77 102.583 310.081 70.5945 311.434 39.059C312.487 14.4957 300.143 4.14708 294.63 0.770631Z" fill="black"/>
</g>
<defs>
<clipPath id="clip0_1_7139">
<rect width="311" height="300" fill="white" transform="translate(0.5 0.609863)"/>
</clipPath>
</defs>
</svg>
