<svg width="74" height="72" viewBox="0 0 74 72" fill="none" xmlns="http://www.w3.org/2000/svg">
<g clip-path="url(#clip0_434_27086)">
<path d="M23.2375 12H18.4506C17.7805 12 17.2539 12.528 17.2539 13.2V18C17.2539 18.672 17.7805 19.2 18.4506 19.2H23.2375C23.9077 19.2 24.4342 18.672 24.4342 18V13.2C24.4342 12.528 23.9077 12 23.2375 12ZM22.0408 16.8H19.6473V14.4H22.0408V16.8Z" fill="#D4B183"/>
<path d="M56.8182 32.016L55.6215 35.616C55.5258 35.88 55.5497 36.168 55.6454 36.432L58.0389 42.432C58.2303 42.888 58.6612 43.176 59.1399 43.176H60.3366V45.576C60.3366 46.248 60.8631 46.776 61.5333 46.776C62.8497 46.776 63.9267 47.856 63.9267 49.176C63.9267 50.496 62.8497 51.576 61.5333 51.576C60.2169 51.576 59.1399 50.496 59.1399 49.176C59.1399 48.504 58.6133 47.976 57.9431 47.976C57.273 47.976 56.7464 48.504 56.7464 49.176C56.7464 51.816 58.9005 53.976 61.5333 53.976C64.1661 53.976 66.3202 51.816 66.3202 49.176C66.3202 46.944 64.7884 45.072 62.73 44.544V43.176H63.9267C64.4054 43.176 64.8602 42.888 65.0277 42.432L67.4212 36.432C67.5169 36.168 67.5408 35.88 67.4451 35.616L66.2484 32.016C66.0808 31.536 65.6261 31.2 65.1235 31.2H57.9431C57.4405 31.2 56.9618 31.536 56.8182 32.016ZM58.8048 33.6H64.2618L65.0517 35.952L63.113 40.8H59.9536L58.0149 35.952L58.8048 33.6Z" fill="#D4B183"/>
<path d="M73.1414 12.36L68.3545 7.56001C68.1391 7.34401 67.8279 7.20001 67.5168 7.20001H22.0414V3.60001C22.0414 3.07201 21.7063 2.61601 21.2276 2.47201L14.0473 0.072006C13.6883 -0.047994 13.2814 6.03776e-06 12.9702 0.240006C12.6591 0.456006 12.4676 0.840006 12.4676 1.22401V7.22401H4.09056C3.63581 7.22401 3.22892 7.48801 3.01351 7.89601L0.620068 12.672C0.428592 13.032 0.452527 13.488 0.667937 13.848C0.883346 14.208 1.2663 14.424 1.69712 14.424H12.4676V34.824C12.4676 35.496 12.9942 36.024 13.6643 36.024C14.3345 36.024 14.8611 35.496 14.8611 34.824V29.856L19.6479 33.048V33.6C19.6479 34.272 20.1745 34.8 20.8447 34.8C21.5148 34.8 22.0414 34.272 22.0414 33.6V27.6C22.0414 26.928 21.5148 26.4 20.8447 26.4C20.1745 26.4 19.6479 26.928 19.6479 27.6V30.168L14.8611 26.976V24.024H28.025C28.6952 24.024 29.2217 23.496 29.2217 22.824V14.424H72.3037C72.7824 14.424 73.2132 14.136 73.4047 13.68C73.5961 13.224 73.4765 12.72 73.1414 12.384V12.36ZM56.2915 12L57.4883 9.60001H61.9879L60.7912 12H56.2915ZM49.1112 12L50.3079 9.60001H54.8076L53.6109 12H49.1112ZM41.9309 12L43.1276 9.60001H47.6273L46.4306 12H41.9309ZM34.7506 12L35.9473 9.60001H40.447L39.2502 12H34.7506ZM19.6479 4.46401V7.20001H14.8611V2.85601L19.6479 4.46401ZM4.83253 9.60001H8.13548L6.93876 12H3.63581L4.83253 9.60001ZM9.61941 12L10.8161 9.60001H12.4676V12H9.61941ZM26.8283 21.6H14.8611V9.60001H26.8283V21.6ZM29.2217 9.60001H33.2666L32.0699 12H29.2217V9.60001ZM63.4719 12L64.6686 9.60001H67.0142L69.4076 12H63.4719Z" fill="#D4B183"/>
<path d="M60.3368 27.6V18C60.3368 17.328 59.8102 16.8 59.1401 16.8C58.4699 16.8 57.9434 17.328 57.9434 18V27.6C57.9434 28.272 58.4699 28.8 59.1401 28.8C59.8102 28.8 60.3368 28.272 60.3368 27.6Z" fill="#D4B183"/>
<path d="M65.1239 27.6V18C65.1239 17.328 64.5974 16.8 63.9272 16.8C63.257 16.8 62.7305 17.328 62.7305 18V27.6C62.7305 28.272 63.257 28.8 63.9272 28.8C64.5974 28.8 65.1239 28.272 65.1239 27.6Z" fill="#D4B183"/>
<path d="M24.434 48C17.8281 48 12.4668 53.376 12.4668 60C12.4668 66.624 17.8281 72 24.434 72C25.9179 72 27.354 71.736 28.7183 71.208C29.3406 70.968 29.6517 70.272 29.4124 69.648C29.173 69.024 28.4789 68.712 27.8566 68.952C26.7557 69.36 25.6068 69.576 24.434 69.576C19.1445 69.576 14.8602 65.28 14.8602 59.976C14.8602 54.672 19.1445 50.376 24.434 50.376C29.7235 50.376 34.0078 54.672 34.0078 59.976C34.0078 60.696 33.936 61.416 33.7684 62.112C33.6248 62.76 34.0317 63.408 34.6779 63.552C35.3242 63.696 35.9704 63.288 36.114 62.64C36.3055 61.776 36.4012 60.864 36.4012 59.952C36.4012 53.328 31.0399 47.952 24.434 47.952V48Z" fill="#D4B183"/>
<path d="M66.3206 69.6H44.1574L42.099 67.368C42.5059 66.408 42.817 65.424 43.0564 64.44L47.4124 63.576C47.9629 63.456 48.3698 62.976 48.3698 62.4V57.6C48.3698 57.024 47.9629 56.544 47.4124 56.424L43.0564 55.56C42.817 54.576 42.5059 53.592 42.099 52.632L45.1147 49.344C45.4977 48.912 45.5455 48.288 45.2105 47.832L42.3862 43.944C42.0511 43.488 41.4288 43.32 40.9262 43.56L36.8813 45.432C36.0914 44.76 35.2777 44.136 34.416 43.608L34.9426 39.192C35.0144 38.616 34.6554 38.088 34.1288 37.92L29.5813 36.432C29.0547 36.264 28.4564 36.48 28.1692 36.984L25.9911 40.872C24.9859 40.776 23.9328 40.776 22.9275 40.872L20.7495 36.984C20.4623 36.48 19.8878 36.264 19.3374 36.432L14.7898 37.92C14.2393 38.088 13.9042 38.64 13.976 39.192L14.5026 43.608C13.641 44.136 12.8033 44.736 12.0374 45.432L7.99243 43.56C7.46588 43.32 6.86752 43.488 6.53243 43.944L3.70817 47.832C3.37309 48.288 3.42096 48.936 3.80391 49.344L6.81965 52.632C6.41276 53.592 6.10161 54.576 5.86227 55.56L1.50621 56.424C0.955713 56.544 0.548828 57.024 0.548828 57.6V62.4C0.548828 62.976 0.955713 63.456 1.50621 63.576L5.86227 64.44C6.10161 65.424 6.41276 66.408 6.81965 67.368L4.40227 69.984C3.94752 70.464 3.99539 71.232 4.47407 71.688C4.71342 71.904 5.00063 72 5.28784 72C5.59899 72 5.93407 71.88 6.17342 71.616L9.11735 68.424C9.45243 68.064 9.52424 67.536 9.33276 67.104C8.7344 65.832 8.30358 64.512 8.06424 63.216C7.9685 62.736 7.60948 62.352 7.1308 62.256L2.96621 61.416V58.584L7.1308 57.744C7.60948 57.648 7.9685 57.264 8.06424 56.784C8.32752 55.464 8.7344 54.168 9.33276 52.896C9.54817 52.464 9.45243 51.936 9.11735 51.576L6.24522 48.432L7.8967 46.128L11.7741 47.904C12.2049 48.096 12.7315 48.024 13.0905 47.688C14.1196 46.728 15.2206 45.912 16.3934 45.264C16.8242 45.024 17.0636 44.568 16.9918 44.064L16.4892 39.84L19.1698 38.976L21.2521 42.696C21.4914 43.128 21.9701 43.368 22.4488 43.296C23.7892 43.128 25.2013 43.128 26.5416 43.296C27.0203 43.344 27.499 43.128 27.7383 42.696L29.8206 38.976L32.5013 39.84L31.9987 44.064C31.9508 44.544 32.1901 45.024 32.597 45.264C33.7698 45.912 34.8708 46.728 35.9 47.688C36.259 48.024 36.7855 48.096 37.2164 47.904L41.0937 46.128L42.7452 48.432L39.8731 51.576C39.538 51.936 39.4662 52.464 39.6577 52.896C40.256 54.168 40.6869 55.488 40.9262 56.784C41.0219 57.264 41.381 57.648 41.8596 57.744L46.0242 58.584V61.416L41.8596 62.256C41.381 62.352 41.0219 62.736 40.9262 63.216C40.6629 64.536 40.256 65.832 39.6577 67.104C39.4423 67.536 39.538 68.064 39.8731 68.424L42.7931 71.592C43.0324 71.856 43.3675 71.976 43.7026 71.976C43.7505 71.976 43.8223 72 43.8701 72H66.3685C67.0387 72 67.5652 71.472 67.5652 70.8C67.5652 70.128 67.0387 69.6 66.3685 69.6H66.3206Z" fill="#D4B183"/>
<path d="M71.3457 69.6H71.1063C70.4362 69.6 70.0293 70.128 70.0293 70.8C70.0293 71.472 70.6755 72 71.3457 72C72.0159 72 72.5424 71.472 72.5424 70.8C72.5424 70.128 72.0159 69.6 71.3457 69.6Z" fill="#D4B183"/>
<path d="M32.2132 66.12L31.9739 66.36C31.5191 66.84 31.5191 67.584 31.9739 68.064C32.2132 68.304 32.5004 68.424 32.8116 68.424C33.1227 68.424 33.4339 68.304 33.6493 68.064L33.8886 67.824C34.3434 67.344 34.3434 66.6 33.8886 66.12C33.4099 65.664 32.668 65.664 32.1893 66.12H32.2132Z" fill="#D4B183"/>
</g>
<defs>
<clipPath id="clip0_434_27086">
<rect width="73" height="72" fill="white" transform="translate(0.5)"/>
</clipPath>
</defs>
</svg>
