<svg width="72" height="72" viewBox="0 0 72 72" fill="none" xmlns="http://www.w3.org/2000/svg">
<g clip-path="url(#clip0_434_26934)">
<path d="M40.9746 40.224C41.1903 40.608 41.574 40.824 42.0295 40.824H45.6259V64.824C45.6259 65.496 46.1534 66.024 46.8247 66.024C47.496 66.024 48.0235 65.496 48.0235 64.824V39.624C48.0235 38.952 47.496 38.424 46.8247 38.424H44.1394L49.2223 29.952L54.3052 38.424H51.6199C50.9486 38.424 50.4211 38.952 50.4211 39.624V52.824C50.4211 53.496 50.9486 54.024 51.6199 54.024C52.2912 54.024 52.8187 53.496 52.8187 52.824V40.824H56.4151C56.8467 40.824 57.2543 40.584 57.4701 40.224C57.6858 39.864 57.6858 39.384 57.4701 39.024L50.2773 27.024C49.8457 26.304 48.6469 26.304 48.2153 27.024L41.0225 39.024C40.8067 39.384 40.7827 39.864 41.0225 40.224H40.9746Z" fill="#D4B183"/>
<path d="M71.8082 12.6L64.6154 0.599998C64.1838 -0.120002 62.985 -0.120002 62.5535 0.599998L55.3606 12.6C55.1449 12.96 55.1209 13.44 55.3606 13.8C55.6004 14.16 55.96 14.4 56.4156 14.4H60.012V50.352C60.012 60.96 51.3806 69.6 40.7832 69.6H2.46953V64.8C2.46953 62.16 4.62737 60 7.26474 60H8.46354C9.13487 60 9.66234 59.472 9.66234 58.8V57.6H33.5664V58.8C33.5664 59.472 34.0939 60 34.7652 60H34.8132H35.988C38.6014 60.024 40.7353 62.16 40.7353 64.8H17.982C17.3107 64.8 16.7832 65.328 16.7832 66C16.7832 66.672 17.3107 67.2 17.982 67.2H41.958C41.958 67.2 41.958 67.2 41.982 67.2C41.982 67.2 41.982 67.2 42.006 67.2C42.6773 67.2 43.2048 66.672 43.2048 66V64.8C43.2048 60.84 39.968 57.6 36.012 57.6C36.012 56.28 34.9331 55.2 33.6144 55.2H33.5664H33.1588L38.6014 44.928V44.88C38.6254 44.808 38.6494 44.736 38.6733 44.64C38.6733 44.568 38.7213 44.496 38.7213 44.424C38.7213 44.352 38.7213 44.28 38.7213 44.208C38.7213 44.112 38.7213 44.04 38.6733 43.944V43.896L34.6933 34.32C34.5015 33.864 34.0699 33.576 33.5904 33.576C31.025 33.576 28.6274 32.568 26.8292 30.768C25.3666 29.304 24.4795 27.456 24.1678 25.44C25.4146 26.088 26.8052 26.496 28.3157 26.496C30.042 26.496 31.7203 25.968 33.1588 25.056L36.6593 28.176C37.0669 28.56 37.7143 28.584 38.1698 28.248L42.7013 24.96C43.013 24.744 43.2048 24.384 43.2048 24V19.512C43.2048 19.512 43.1808 19.368 43.1568 19.272C43.1568 19.224 43.1568 19.176 43.1329 19.104C43.0849 18.96 43.013 18.84 42.9171 18.72L33.6144 7.776L35.1489 3.336C35.3407 2.784 35.1009 2.184 34.5974 1.896C34.4535 1.824 31.001 -0.0240021 23.9281 -0.0240021C17.5504 -0.0240021 11.5564 2.472 7.07293 6.984C2.51748 11.52 0.047952 17.52 0.0719281 23.976C0.0719281 35.976 5.39461 42.36 9.59041 46.152V55.224C8.27173 55.224 7.19281 56.304 7.19281 57.624C3.23676 57.624 0 60.864 0 64.824V70.824C0 71.496 0.527473 72.024 1.1988 72.024H1.24675H37.2108H41.9101C42.0539 72.024 42.1738 72 42.3177 71.952C52.963 71.184 61.4506 62.688 62.2657 52.056C62.3137 51.936 62.3616 51.792 62.3616 51.648V13.2C62.3616 12.528 61.8342 12 61.1628 12H58.4775L63.5604 3.528L68.6434 12H65.958C65.2867 12 64.7592 12.528 64.7592 13.2V34.8C64.7592 35.472 65.2867 36 65.958 36C66.6294 36 67.1568 35.472 67.1568 34.8V14.4H70.7533C71.1848 14.4 71.5924 14.16 71.8082 13.8C72.024 13.44 72.024 12.96 71.8082 12.6ZM11.988 45.576C11.988 45.576 11.964 45.408 11.9401 45.312C11.9401 45.24 11.9161 45.168 11.8921 45.12C11.8681 45.048 11.8202 45 11.7722 44.952C11.7243 44.88 11.6763 44.808 11.6044 44.736C11.6044 44.736 11.6044 44.736 11.6044 44.712C7.6963 41.28 2.49351 35.4 2.49351 23.904C2.49351 18.168 4.6993 12.768 8.75125 8.712C12.8032 4.656 18.1738 2.4 23.9041 2.4C28.3157 2.4 31.1449 3.168 32.4875 3.648L31.7443 5.832C31.3127 5.472 30.6653 5.448 30.2338 5.832C29.7303 6.264 29.6823 7.032 30.1139 7.536L40.8072 19.968V23.4L37.5465 25.776L34.046 22.632C34.046 22.632 33.9261 22.56 33.8541 22.536C33.8541 22.536 33.8302 22.536 33.8062 22.512C33.3267 22.248 32.7273 22.32 32.3437 22.728C32.3437 22.728 32.3437 22.752 32.3197 22.776C31.1688 23.64 29.7782 24.144 28.3397 24.144C24.6953 24.144 21.7463 21.192 21.7463 17.544C21.7463 16.872 21.2188 16.344 20.5475 16.344C19.8761 16.344 19.3487 16.872 19.3487 17.544C19.3487 19.848 20.2358 21.936 21.6743 23.52V24C21.6743 27.216 22.8971 30.24 25.1509 32.496C27.2128 34.584 29.8981 35.808 32.7992 36L36.2518 44.328L30.4735 55.224H12.012V45.624C12.012 45.624 12.012 45.6 12.012 45.576H11.988Z" fill="#D4B183"/>
<path d="M26.6614 13.512L28.8912 14.712C29.083 14.808 29.2748 14.856 29.4666 14.856C29.8981 14.856 30.3057 14.616 30.5215 14.232C30.8332 13.656 30.6174 12.912 30.042 12.6L27.8122 11.4C27.2368 11.088 26.4936 11.304 26.1819 11.88C25.8702 12.456 26.086 13.2 26.6614 13.512Z" fill="#D4B183"/>
<path d="M66.0054 38.4C65.3341 38.4 64.8066 38.928 64.8066 39.6V39.84C64.8066 40.512 65.3341 41.04 66.0054 41.04C66.6768 41.04 67.2042 40.512 67.2042 39.84V39.6C67.2042 38.928 66.6768 38.4 66.0054 38.4Z" fill="#D4B183"/>
<path d="M51.6207 56.52C50.9493 56.52 50.4219 57.168 50.4219 57.84C50.4219 58.512 50.9493 59.04 51.6207 59.04C52.292 59.04 52.8195 58.512 52.8195 57.84V57.6C52.8195 56.928 52.292 56.52 51.6207 56.52Z" fill="#D4B183"/>
</g>
<defs>
<clipPath id="clip0_434_26934">
<rect width="72" height="72" fill="white"/>
</clipPath>
</defs>
</svg>
