<svg width="72" height="72" viewBox="0 0 72 72" fill="none" xmlns="http://www.w3.org/2000/svg">
<g clip-path="url(#clip0_434_26871)">
<path d="M31.2008 50.4V46.8C31.2008 46.128 30.6728 45.6 30.0008 45.6C29.3288 45.6 28.8008 46.128 28.8008 46.8V50.4C28.8008 51.072 29.3288 51.6 30.0008 51.6C30.6728 51.6 31.2008 51.072 31.2008 50.4Z" fill="#D4B183"/>
<path d="M30.0008 12C30.6728 12 31.2008 11.472 31.2008 10.8V7.2H55.2008V9.6H34.8008C34.1288 9.6 33.6008 10.128 33.6008 10.8C33.6008 11.472 34.1288 12 34.8008 12H55.2008V14.4H40.8008C40.1288 14.4 39.6008 14.928 39.6008 15.6C39.6008 16.272 40.1288 16.8 40.8008 16.8H55.2008V19.2H44.4008C43.7288 19.2 43.2008 19.728 43.2008 20.4C43.2008 21.072 43.7288 21.6 44.4008 21.6H55.2008V24H46.8008C46.1288 24 45.6008 24.528 45.6008 25.2C45.6008 25.872 46.1288 26.4 46.8008 26.4H55.2008V28.8H46.8008C46.1288 28.8 45.6008 29.328 45.6008 30C45.6008 30.672 46.1288 31.2 46.8008 31.2H55.2008V33.6H45.6008C44.9288 33.6 44.4008 34.128 44.4008 34.8C44.4008 35.472 44.9288 36 45.6008 36H55.2008V38.4H43.2008C42.5288 38.4 42.0008 38.928 42.0008 39.6C42.0008 40.272 42.5288 40.8 43.2008 40.8H55.2008V43.2C55.2008 43.872 55.7288 44.4 56.4008 44.4C57.0728 44.4 57.6008 43.872 57.6008 43.2V14.4H64.8008V37.2C64.8008 37.872 65.3288 38.4 66.0008 38.4C66.6728 38.4 67.2008 37.872 67.2008 37.2V13.2C67.2008 12.528 66.6728 12 66.0008 12H57.6008V6C57.6008 5.328 57.0728 4.8 56.4008 4.8H55.2008V1.2C55.2008 0.528 54.6728 0 54.0008 0H33.6008C32.9288 0 32.4008 0.528 32.4008 1.2C32.4008 1.872 32.9288 2.4 33.6008 2.4H52.8008V4.8H30.0008C29.3288 4.8 28.8008 5.328 28.8008 6V10.8C28.8008 11.472 29.3288 12 30.0008 12Z" fill="#D4B183"/>
<path d="M8.51964 26.376C8.51964 26.376 8.66364 26.376 8.73564 26.376C9.31164 26.376 9.81564 25.968 9.91164 25.392C11.2076 18.576 16.3676 13.056 23.0876 11.328C23.7356 11.16 24.1196 10.512 23.9516 9.864C23.7836 9.216 23.1356 8.832 22.4876 9C14.8796 10.968 8.99964 17.208 7.53564 24.936C7.41564 25.584 7.84764 26.208 8.49564 26.328L8.51964 26.376Z" fill="#D4B183"/>
<path d="M70.8 69.6H1.2C0.528 69.6 0 70.128 0 70.8C0 71.472 0.528 72 1.2 72H70.8C71.472 72 72 71.472 72 70.8C72 70.128 71.472 69.6 70.8 69.6Z" fill="#D4B183"/>
<path d="M47.2808 45.696C46.9208 45.552 46.5128 45.576 46.1768 45.768L31.1048 55.032L23.2808 51.672C22.9448 51.528 22.5848 51.552 22.2728 51.696L0.672762 62.52C0.0727621 62.808 -0.167238 63.528 0.144762 64.128C0.360762 64.56 0.768762 64.8 1.22476 64.8C1.41676 64.8 1.58476 64.752 1.75276 64.68L22.8488 54.12L30.7448 57.504C31.1048 57.648 31.5128 57.624 31.8488 57.432L46.9208 48.168L54.7448 51.528C55.0808 51.672 55.4648 51.648 55.7768 51.48L71.3768 43.08C71.9528 42.768 72.1688 42.048 71.8568 41.448C71.5448 40.848 70.8008 40.656 70.2248 40.968L55.1288 49.08L47.2568 45.72L47.2808 45.696Z" fill="#D4B183"/>
<path d="M12 63.6V66C12 66.672 12.528 67.2 13.2 67.2C13.872 67.2 14.4 66.672 14.4 66V63.6C14.4 62.928 13.872 62.4 13.2 62.4C12.528 62.4 12 62.928 12 63.6Z" fill="#D4B183"/>
<path d="M16.8008 61.2V66C16.8008 66.672 17.3288 67.2 18.0008 67.2C18.6728 67.2 19.2008 66.672 19.2008 66V61.2C19.2008 60.528 18.6728 60 18.0008 60C17.3288 60 16.8008 60.528 16.8008 61.2Z" fill="#D4B183"/>
<path d="M21.5996 58.8V66C21.5996 66.672 22.1276 67.2 22.7996 67.2C23.4716 67.2 23.9996 66.672 23.9996 66V58.8C23.9996 58.128 23.4716 57.6 22.7996 57.6C22.1276 57.6 21.5996 58.128 21.5996 58.8Z" fill="#D4B183"/>
<path d="M26.4004 60V66C26.4004 66.672 26.9284 67.2 27.6004 67.2C28.2724 67.2 28.8004 66.672 28.8004 66V60C28.8004 59.328 28.2724 58.8 27.6004 58.8C26.9284 58.8 26.4004 59.328 26.4004 60Z" fill="#D4B183"/>
<path d="M31.1992 61.2V66C31.1992 66.672 31.7272 67.2 32.3992 67.2C33.0712 67.2 33.5992 66.672 33.5992 66V61.2C33.5992 60.528 33.0712 60 32.3992 60C31.7272 60 31.1992 60.528 31.1992 61.2Z" fill="#D4B183"/>
<path d="M36 58.8V66C36 66.672 36.528 67.2 37.2 67.2C37.872 67.2 38.4 66.672 38.4 66V58.8C38.4 58.128 37.872 57.6 37.2 57.6C36.528 57.6 36 58.128 36 58.8Z" fill="#D4B183"/>
<path d="M40.8008 55.2V66C40.8008 66.672 41.3288 67.2 42.0008 67.2C42.6728 67.2 43.2008 66.672 43.2008 66V55.2C43.2008 54.528 42.6728 54 42.0008 54C41.3288 54 40.8008 54.528 40.8008 55.2Z" fill="#D4B183"/>
<path d="M45.5996 54V66C45.5996 66.672 46.1276 67.2 46.7996 67.2C47.4716 67.2 47.9996 66.672 47.9996 66V54C47.9996 53.328 47.4716 52.8 46.7996 52.8C46.1276 52.8 45.5996 53.328 45.5996 54Z" fill="#D4B183"/>
<path d="M50.4004 55.2V66C50.4004 66.672 50.9284 67.2 51.6004 67.2C52.2724 67.2 52.8004 66.672 52.8004 66V55.2C52.8004 54.528 52.2724 54 51.6004 54C50.9284 54 50.4004 54.528 50.4004 55.2Z" fill="#D4B183"/>
<path d="M55.1992 54V66C55.1992 66.672 55.7272 67.2 56.3992 67.2C57.0712 67.2 57.5992 66.672 57.5992 66V54C57.5992 53.328 57.0712 52.8 56.3992 52.8C55.7272 52.8 55.1992 53.328 55.1992 54Z" fill="#D4B183"/>
<path d="M60 52.8V66C60 66.672 60.528 67.2 61.2 67.2C61.872 67.2 62.4 66.672 62.4 66V52.8C62.4 52.128 61.872 51.6 61.2 51.6C60.528 51.6 60 52.128 60 52.8Z" fill="#D4B183"/>
<path d="M70.7996 48C70.1276 48 69.5996 48.528 69.5996 49.2V66C69.5996 66.672 70.1276 67.2 70.7996 67.2C71.4716 67.2 71.9996 66.672 71.9996 66V49.2C71.9996 48.528 71.4716 48 70.7996 48Z" fill="#D4B183"/>
<path d="M64.8008 50.4V66C64.8008 66.672 65.3288 67.2 66.0008 67.2C66.6728 67.2 67.2008 66.672 67.2008 66V50.4C67.2008 49.728 66.6728 49.2 66.0008 49.2C65.3288 49.2 64.8008 49.728 64.8008 50.4Z" fill="#D4B183"/>
<path d="M60 37.2C60 37.872 60.528 38.4 61.2 38.4C61.872 38.4 62.4 37.872 62.4 37.2V36.96C62.4 36.288 61.872 35.76 61.2 35.76C60.528 35.76 60 36.288 60 36.96V37.2Z" fill="#D4B183"/>
<path d="M60 32.4C60 33.072 60.528 33.6 61.2 33.6C61.872 33.6 62.4 33.072 62.4 32.4V32.16C62.4 31.488 61.872 30.96 61.2 30.96C60.528 30.96 60 31.488 60 32.16V32.4Z" fill="#D4B183"/>
<path d="M60 27.6C60 28.272 60.528 28.8 61.2 28.8C61.872 28.8 62.4 28.272 62.4 27.6V27.36C62.4 26.688 61.872 26.16 61.2 26.16C60.528 26.16 60 26.688 60 27.36V27.6Z" fill="#D4B183"/>
<path d="M60 22.8C60 23.472 60.528 24 61.2 24C61.872 24 62.4 23.472 62.4 22.8V22.56C62.4 21.888 61.872 21.36 61.2 21.36C60.528 21.36 60 21.888 60 22.56V22.8Z" fill="#D4B183"/>
<path d="M61.2 19.2C61.872 19.2 62.4 18.672 62.4 18V17.76C62.4 17.088 61.872 16.56 61.2 16.56C60.528 16.56 60 17.088 60 17.76V18C60 18.672 60.528 19.2 61.2 19.2Z" fill="#D4B183"/>
<path d="M7.19922 65.76V66C7.19922 66.672 7.72722 67.2 8.39922 67.2C9.07122 67.2 9.59922 66.672 9.59922 66V65.76C9.59922 65.088 9.07122 64.56 8.39922 64.56C7.72722 64.56 7.19922 65.088 7.19922 65.76Z" fill="#D4B183"/>
<path d="M8.39922 31.2C9.07122 31.2 9.59922 30.672 9.59922 30V29.76C9.59922 29.088 9.07122 28.56 8.39922 28.56C7.72722 28.56 7.19922 29.088 7.19922 29.76V30C7.19922 30.672 7.72722 31.2 8.39922 31.2Z" fill="#D4B183"/>
<path d="M4.8 55.2C6.072 55.2 7.296 54.696 8.184 53.784L14.184 47.784C15.096 46.872 15.6 45.672 15.6 44.4C15.6 43.536 15.36 42.696 14.928 41.976L17.688 39.216C20.28 41.688 23.76 43.2 27.6 43.2C35.544 43.2 42 36.744 42 28.8C42 20.856 35.544 14.4 27.6 14.4C19.656 14.4 13.2 20.856 13.2 28.8C13.2 32.04 14.28 35.016 16.08 37.416L13.2 40.296C11.376 39.264 8.904 39.504 7.392 41.016L1.392 47.016C0.504 47.904 0 49.128 0 50.4C0 51.672 0.504 52.896 1.416 53.784C2.328 54.672 3.528 55.2 4.8 55.2ZM27.6 16.8C34.224 16.8 39.6 22.176 39.6 28.8C39.6 35.424 34.224 40.8 27.6 40.8C20.976 40.8 15.6 35.424 15.6 28.8C15.6 22.176 20.976 16.8 27.6 16.8ZM3.096 48.696L9.096 42.696C9.552 42.24 10.152 42 10.8 42C11.448 42 12.048 42.24 12.504 42.696C12.96 43.152 13.2 43.752 13.2 44.4C13.2 45.048 12.96 45.648 12.504 46.104L6.504 52.104C5.592 53.016 4.008 53.016 3.12 52.104C2.664 51.648 2.424 51.048 2.424 50.4C2.424 49.752 2.664 49.152 3.12 48.696H3.096Z" fill="#D4B183"/>
</g>
<defs>
<clipPath id="clip0_434_26871">
<rect width="72" height="72" fill="white"/>
</clipPath>
</defs>
</svg>
